# This file uses centimeters as units for non-parametric coordinates.

mtllib Arrow.mtl
g default
v 1.914760 0.032640 -0.100454
v 1.914760 0.062084 -0.085451
v 1.914760 0.085451 -0.062084
v 1.914760 0.100454 -0.032639
v 1.914760 0.105624 0.000000
v 1.914760 0.100454 0.032640
v 1.914760 0.085451 0.062084
v 1.914760 0.062084 0.085451
v 1.914760 0.032640 0.100454
v 1.914760 0.000000 0.105624
v 1.914760 -0.032639 0.100454
v 1.914760 -0.062084 0.085451
v 1.914760 -0.085451 0.062084
v 1.914760 -0.100454 0.032640
v 1.914760 -0.105624 0.000000
v 1.914760 -0.100454 -0.032639
v 1.914760 -0.085451 -0.062084
v 1.914760 -0.062084 -0.085451
v 1.914760 -0.032639 -0.100454
v 1.914760 0.000000 -0.105624
v 2.282662 0.000000 0.000000
v -0.000510 0.009890 -0.030439
v -0.000510 0.018812 -0.025893
v -0.000510 0.025893 -0.018812
v -0.000510 0.030439 -0.009890
v -0.000510 0.032005 0.000000
v -0.000510 0.030439 0.009890
v -0.000510 0.025893 0.018812
v -0.000510 0.018812 0.025893
v -0.000510 0.009890 0.030439
v -0.000510 0.000000 0.032005
v -0.000510 -0.009890 0.030439
v -0.000510 -0.018812 0.025893
v -0.000510 -0.025893 0.018812
v -0.000510 -0.030439 0.009890
v -0.000510 -0.032005 0.000000
v -0.000510 -0.030439 -0.009890
v -0.000510 -0.025893 -0.018812
v -0.000510 -0.018812 -0.025893
v -0.000510 -0.009890 -0.030439
v -0.000510 0.000000 -0.032005
v 2.041727 0.009890 -0.030439
v 2.041727 0.018812 -0.025893
v 2.041727 0.025893 -0.018812
v 2.041727 0.030439 -0.009890
v 2.041727 0.032005 0.000000
v 2.041727 0.030439 0.009890
v 2.041727 0.025893 0.018812
v 2.041727 0.018812 0.025893
v 2.041727 0.009890 0.030439
v 2.041727 0.000000 0.032005
v 2.041727 -0.009890 0.030439
v 2.041727 -0.018812 0.025893
v 2.041727 -0.025893 0.018812
v 2.041727 -0.030439 0.009890
v 2.041727 -0.032005 0.000000
v 2.041727 -0.030439 -0.009890
v 2.041727 -0.025893 -0.018812
v 2.041727 -0.018812 -0.025893
v 2.041727 -0.009890 -0.030439
v 2.041727 0.000000 -0.032005
v -0.000510 0.000000 0.000000
v 2.041727 0.000000 0.000000
vt 0.737764 0.172746
vt 0.702254 0.103054
vt 0.646946 0.047746
vt 0.577254 0.012236
vt 0.500000 -0.000000
vt 0.422746 0.012236
vt 0.353054 0.047746
vt 0.297746 0.103054
vt 0.262236 0.172746
vt 0.250000 0.250000
vt 0.262236 0.327254
vt 0.297746 0.396946
vt 0.353054 0.452254
vt 0.422746 0.487764
vt 0.500000 0.500000
vt 0.577254 0.487764
vt 0.646946 0.452254
vt 0.702254 0.396946
vt 0.737764 0.327254
vt 0.750000 0.250000
vt 0.250000 0.500000
vt 0.275000 0.500000
vt 0.300000 0.500000
vt 0.325000 0.500000
vt 0.350000 0.500000
vt 0.375000 0.500000
vt 0.400000 0.500000
vt 0.425000 0.500000
vt 0.450000 0.500000
vt 0.475000 0.500000
vt 0.500000 0.500000
vt 0.525000 0.500000
vt 0.550000 0.500000
vt 0.575000 0.500000
vt 0.600000 0.500000
vt 0.625000 0.500000
vt 0.650000 0.500000
vt 0.675000 0.500000
vt 0.700000 0.500000
vt 0.725000 0.500000
vt 0.750000 0.500000
vt 0.500000 1.000000
vt 0.375000 0.312500
vt 0.387500 0.312500
vt 0.387500 0.688440
vt 0.375000 0.688440
vt 0.400000 0.312500
vt 0.400000 0.688440
vt 0.412500 0.312500
vt 0.412500 0.688440
vt 0.425000 0.312500
vt 0.425000 0.688440
vt 0.437500 0.312500
vt 0.437500 0.688440
vt 0.450000 0.312500
vt 0.450000 0.688440
vt 0.462500 0.312500
vt 0.462500 0.688440
vt 0.475000 0.312500
vt 0.475000 0.688440
vt 0.487500 0.312500
vt 0.487500 0.688440
vt 0.500000 0.312500
vt 0.500000 0.688440
vt 0.512500 0.312500
vt 0.512500 0.688440
vt 0.525000 0.312500
vt 0.525000 0.688440
vt 0.537500 0.312500
vt 0.537500 0.688440
vt 0.550000 0.312500
vt 0.550000 0.688440
vt 0.562500 0.312500
vt 0.562500 0.688440
vt 0.575000 0.312500
vt 0.575000 0.688440
vt 0.587500 0.312500
vt 0.587500 0.688440
vt 0.600000 0.312500
vt 0.600000 0.688440
vt 0.612500 0.312500
vt 0.612500 0.688440
vt 0.625000 0.312500
vt 0.625000 0.688440
vt 0.626409 0.064408
vt 0.648603 0.107966
vt 0.500000 0.150000
vt 0.591842 0.029841
vt 0.548284 0.007647
vt 0.500000 -0.000000
vt 0.451716 0.007647
vt 0.408159 0.029841
vt 0.373591 0.064409
vt 0.351397 0.107966
vt 0.343750 0.156250
vt 0.351397 0.204534
vt 0.373591 0.248091
vt 0.408159 0.282659
vt 0.451716 0.304853
vt 0.500000 0.312500
vt 0.548284 0.304853
vt 0.591841 0.282659
vt 0.626409 0.248091
vt 0.648603 0.204534
vt 0.656250 0.156250
vt 0.648603 0.892034
vt 0.626409 0.935591
vt 0.500000 0.837500
vt 0.591841 0.970159
vt 0.548284 0.992353
vt 0.500000 1.000000
vt 0.451716 0.992353
vt 0.408159 0.970159
vt 0.373591 0.935591
vt 0.351397 0.892034
vt 0.343750 0.843750
vt 0.351397 0.795466
vt 0.373591 0.751909
vt 0.408159 0.717341
vt 0.451716 0.695147
vt 0.500000 0.687500
vt 0.548284 0.695147
vt 0.591842 0.717341
vt 0.626409 0.751908
vt 0.648603 0.795466
vt 0.656250 0.843750
vn -1.000000 -0.000000 0.000000
vn -1.000000 -0.000000 0.000000
vn -1.000000 -0.000000 0.000000
vn -1.000000 -0.000000 0.000000
vn -1.000000 -0.000000 0.000000
vn -1.000000 -0.000000 0.000000
vn -1.000000 -0.000000 0.000000
vn -1.000000 -0.000000 0.000000
vn -1.000000 -0.000000 0.000000
vn -1.000000 -0.000000 0.000000
vn -1.000000 -0.000000 0.000000
vn -1.000000 -0.000000 0.000000
vn -1.000000 -0.000000 0.000000
vn -1.000000 -0.000000 0.000000
vn -1.000000 -0.000000 0.000000
vn -1.000000 -0.000000 0.000000
vn -1.000000 -0.000000 0.000000
vn -1.000000 -0.000000 0.000000
vn -1.000000 -0.000000 0.000000
vn -1.000000 -0.000000 0.000000
vn 0.275950 0.297018 -0.914129
vn 0.275950 0.564963 -0.777604
vn 1.000000 -0.000005 0.000004
vn 0.275950 0.777605 -0.564963
vn 0.275950 0.914129 -0.297018
vn 0.275950 0.961172 0.000000
vn 0.275950 0.914129 0.297019
vn 0.275950 0.777604 0.564963
vn 0.275950 0.564963 0.777604
vn 0.275950 0.297019 0.914129
vn 0.275950 0.000000 0.961172
vn 0.275950 -0.297019 0.914129
vn 0.275950 -0.564963 0.777604
vn 0.275950 -0.777605 0.564963
vn 0.275950 -0.914129 0.297018
vn 0.275950 -0.961172 0.000000
vn 0.275950 -0.914129 -0.297018
vn 0.275950 -0.777604 -0.564963
vn 0.275950 -0.564963 -0.777604
vn 0.275950 -0.297019 -0.914129
vn 0.275950 -0.000001 -0.961172
vn 0.000000 0.309016 -0.951057
vn 0.000000 0.587785 -0.809017
vn 0.000000 0.587785 -0.809017
vn 0.000000 0.309016 -0.951057
vn 0.000000 0.809017 -0.587785
vn 0.000000 0.809017 -0.587785
vn 0.000000 0.951057 -0.309017
vn 0.000000 0.951057 -0.309017
vn 0.000000 1.000000 0.000000
vn 0.000000 1.000000 0.000000
vn 0.000000 0.951056 0.309017
vn 0.000000 0.951056 0.309017
vn 0.000000 0.809017 0.587786
vn 0.000000 0.809017 0.587786
vn 0.000000 0.587785 0.809017
vn 0.000000 0.587785 0.809017
vn 0.000000 0.309017 0.951057
vn 0.000000 0.309017 0.951057
vn 0.000000 0.000000 1.000000
vn 0.000000 0.000000 1.000000
vn 0.000000 -0.309017 0.951057
vn 0.000000 -0.309017 0.951057
vn 0.000000 -0.587785 0.809017
vn 0.000000 -0.587785 0.809017
vn 0.000000 -0.809017 0.587785
vn 0.000000 -0.809017 0.587785
vn 0.000000 -0.951056 0.309017
vn 0.000000 -0.951056 0.309017
vn 0.000000 -1.000000 -0.000000
vn 0.000000 -1.000000 -0.000000
vn 0.000000 -0.951056 -0.309017
vn 0.000000 -0.951056 -0.309017
vn 0.000000 -0.809017 -0.587785
vn 0.000000 -0.809017 -0.587785
vn 0.000000 -0.587785 -0.809017
vn 0.000000 -0.587785 -0.809017
vn 0.000000 -0.309017 -0.951057
vn 0.000000 -0.309017 -0.951057
vn 0.000000 -0.000001 -1.000000
vn 0.000000 -0.000001 -1.000000
vn -1.000000 0.000000 0.000000
vn -1.000000 0.000000 0.000000
vn -1.000000 0.000000 0.000000
vn -1.000000 -0.000000 0.000000
vn -1.000000 -0.000000 0.000000
vn -1.000000 0.000000 0.000000
vn -1.000000 0.000000 0.000000
vn -1.000000 0.000000 0.000000
vn -1.000000 0.000000 0.000000
vn -1.000000 0.000000 0.000000
vn -1.000000 0.000000 0.000000
vn -1.000000 0.000000 0.000000
vn -1.000000 0.000000 0.000000
vn -1.000000 -0.000000 0.000000
vn -1.000000 -0.000000 0.000000
vn -1.000000 0.000000 0.000000
vn -1.000000 0.000000 0.000000
vn -1.000000 0.000000 0.000000
vn -1.000000 0.000000 0.000000
vn -1.000000 0.000000 0.000000
vn -1.000000 0.000000 0.000000
vn 1.000000 0.000000 0.000000
vn 1.000000 0.000000 0.000000
vn 1.000000 -0.000000 0.000000
vn 1.000000 -0.000012 0.000000
vn 1.000000 -0.000012 0.000000
vn 1.000000 0.000000 0.000000
vn 1.000000 0.000006 0.000000
vn 1.000000 0.000006 0.000000
vn 1.000000 0.000000 0.000000
vn 1.000000 -0.000012 0.000000
vn 1.000000 -0.000012 0.000000
vn 1.000000 0.000000 0.000000
vn 1.000000 0.000000 0.000000
vn 1.000000 0.000000 0.000000
vn 1.000000 0.000000 0.000000
vn 1.000000 -0.000000 0.000000
vn 1.000000 0.000006 0.000000
vn 1.000000 0.000006 0.000000
vn 1.000000 0.000000 0.000000
vn 1.000000 0.000012 0.000000
vn 1.000000 0.000012 0.000000
s off
g pCone2
usemtl initialShadingGroup
f 1/1/1 20/20/2 19/19/3 18/18/4 17/17/5 16/16/6 15/15/7 14/14/8 13/13/9 12/12/10 11/11/11 10/10/12 9/9/13 8/8/14 7/7/15 6/6/16 5/5/17 4/4/18 3/3/19 2/2/20
s 1
f 1/21/21 2/22/22 21/42/23
f 2/22/22 3/23/24 21/42/23
f 3/23/24 4/24/25 21/42/23
f 4/24/25 5/25/26 21/42/23
f 5/25/26 6/26/27 21/42/23
f 6/26/27 7/27/28 21/42/23
f 7/27/28 8/28/29 21/42/23
f 8/28/29 9/29/30 21/42/23
f 9/29/30 10/30/31 21/42/23
f 10/30/31 11/31/32 21/42/23
f 11/31/32 12/32/33 21/42/23
f 12/32/33 13/33/34 21/42/23
f 13/33/34 14/34/35 21/42/23
f 14/34/35 15/35/36 21/42/23
f 15/35/36 16/36/37 21/42/23
f 16/36/37 17/37/38 21/42/23
f 17/37/38 18/38/39 21/42/23
f 18/38/39 19/39/40 21/42/23
f 19/39/40 20/40/41 21/42/23
f 20/40/41 1/41/21 21/42/23
s 2
f 22/43/42 23/44/43 43/45/44 42/46/45
f 23/44/43 24/47/46 44/48/47 43/45/44
f 24/47/46 25/49/48 45/50/49 44/48/47
f 25/49/48 26/51/50 46/52/51 45/50/49
f 26/51/50 27/53/52 47/54/53 46/52/51
f 27/53/52 28/55/54 48/56/55 47/54/53
f 28/55/54 29/57/56 49/58/57 48/56/55
f 29/57/56 30/59/58 50/60/59 49/58/57
f 30/59/58 31/61/60 51/62/61 50/60/59
f 31/61/60 32/63/62 52/64/63 51/62/61
f 32/63/62 33/65/64 53/66/65 52/64/63
f 33/65/64 34/67/66 54/68/67 53/66/65
f 34/67/66 35/69/68 55/70/69 54/68/67
f 35/69/68 36/71/70 56/72/71 55/70/69
f 36/71/70 37/73/72 57/74/73 56/72/71
f 37/73/72 38/75/74 58/76/75 57/74/73
f 38/75/74 39/77/76 59/78/77 58/76/75
f 39/77/76 40/79/78 60/80/79 59/78/77
f 40/79/78 41/81/80 61/82/81 60/80/79
f 41/81/80 22/83/42 42/84/45 61/82/81
s 3
f 23/85/82 22/86/83 62/87/84
f 24/88/85 23/85/82 62/87/84
f 25/89/86 24/88/85 62/87/84
f 26/90/87 25/89/86 62/87/84
f 27/91/88 26/90/87 62/87/84
f 28/92/89 27/91/88 62/87/84
f 29/93/90 28/92/89 62/87/84
f 30/94/91 29/93/90 62/87/84
f 31/95/92 30/94/91 62/87/84
f 32/96/93 31/95/92 62/87/84
f 33/97/94 32/96/93 62/87/84
f 34/98/95 33/97/94 62/87/84
f 35/99/96 34/98/95 62/87/84
f 36/100/97 35/99/96 62/87/84
f 37/101/98 36/100/97 62/87/84
f 38/102/99 37/101/98 62/87/84
f 39/103/100 38/102/99 62/87/84
f 40/104/101 39/103/100 62/87/84
f 41/105/102 40/104/101 62/87/84
f 22/86/83 41/105/102 62/87/84
s 4
f 42/106/103 43/107/104 63/108/105
f 43/107/104 44/109/106 63/108/105
f 44/109/106 45/110/107 63/108/105
f 45/110/107 46/111/108 63/108/105
f 46/111/108 47/112/109 63/108/105
f 47/112/109 48/113/110 63/108/105
f 48/113/110 49/114/111 63/108/105
f 49/114/111 50/115/112 63/108/105
f 50/115/112 51/116/113 63/108/105
f 51/116/113 52/117/114 63/108/105
f 52/117/114 53/118/115 63/108/105
f 53/118/115 54/119/116 63/108/105
f 54/119/116 55/120/117 63/108/105
f 55/120/117 56/121/118 63/108/105
f 56/121/118 57/122/119 63/108/105
f 57/122/119 58/123/120 63/108/105
f 58/123/120 59/124/121 63/108/105
f 59/124/121 60/125/122 63/108/105
f 60/125/122 61/126/123 63/108/105
f 61/126/123 42/106/103 63/108/105
