# This file uses centimeters as units for non-parametric coordinates.

mtllib Floor.mtl
g default
v -8.000000 -8.000000 -0.050000
v 8.000000 -8.000000 -0.050000
v -8.000000 -8.000000 0.050000
v 8.000000 -8.000000 0.050000
v -8.000000 8.000000 0.050000
v 8.000000 8.000000 0.050000
v -8.000000 8.000000 -0.050000
v 8.000000 8.000000 -0.050000
vt 0.426143 0.996820
vt 0.599429 0.996820
vt 0.006736 -0.005371
vt 0.599429 0.996820
vt 0.724474 0.994315
vt 0.993264 1.001765
vt 0.000291 0.012418
vt 0.974474 0.994315
vt 0.000291 0.997148
vt 0.994594 0.997148
vt 0.849429 0.996820
vt 0.849429 0.996820
vt 0.176143 0.996820
vt 0.099429 0.996820
vt 0.006736 1.001765
vt 0.974474 0.994315
vt 0.349429 0.996820
vt 0.993264 -0.005371
vt 0.724474 0.994315
vt 0.994594 0.012418
vn 0.000000 -1.000000 0.000000
vn 0.000000 -1.000000 0.000000
vn 0.000000 -1.000000 0.000000
vn 0.000000 -1.000000 0.000000
vn 0.000000 0.000000 1.000000
vn 0.000000 0.000000 1.000000
vn 0.000000 0.000000 1.000000
vn 0.000000 0.000000 1.000000
vn 0.000000 1.000000 0.000000
vn 0.000000 1.000000 0.000000
vn 0.000000 1.000000 0.000000
vn 0.000000 1.000000 0.000000
vn 0.000000 0.000000 -1.000000
vn 0.000000 0.000000 -1.000000
vn 0.000000 0.000000 -1.000000
vn 0.000000 0.000000 -1.000000
vn 1.000000 0.000000 0.000000
vn 1.000000 0.000000 0.000000
vn 1.000000 0.000000 0.000000
vn 1.000000 0.000000 0.000000
vn -1.000000 0.000000 0.000000
vn -1.000000 0.000000 0.000000
vn -1.000000 0.000000 0.000000
vn -1.000000 0.000000 0.000000
s off
g pCube1
usemtl initialShadingGroup
f 1/1/1 2/2/2 4/4/3 3/17/4
f 3/3/5 4/18/6 6/6/7 5/15/8
f 5/5/9 6/16/10 8/8/11 7/19/12
f 7/7/13 8/20/14 2/10/15 1/9/16
f 2/2/17 8/11/18 6/12/19 4/4/20
f 7/13/21 1/1/22 3/17/23 5/14/24
